<svg width="200" height="200" viewBox="0 0 200 200" xmlns="http://www.w3.org/2000/svg">
  <!-- Physical AI & Humanoid Robotics Logo -->
  <!-- Geometric humanoid silhouette with circuit motif -->

  <!-- Head - rounded hexagon representing AI brain -->
  <path d="M100 20 L130 35 L130 65 L100 80 L70 65 L70 35 Z"
        fill="#0891B2"
        stroke="#06B6D4"
        stroke-width="2"/>

  <!-- Face visor/eyes - single horizontal line -->
  <rect x="80" y="45" width="40" height="6" rx="3" fill="#06B6D4"/>

  <!-- Neck connector -->
  <rect x="92" y="80" width="16" height="15" fill="#0891B2"/>

  <!-- Torso - geometric body shape -->
  <path d="M70 95 L130 95 L140 150 L60 150 Z"
        fill="#0891B2"
        stroke="#06B6D4"
        stroke-width="2"/>

  <!-- Core/chest element - circular power source -->
  <circle cx="100" cy="120" r="15" fill="#06B6D4" opacity="0.8"/>
  <circle cx="100" cy="120" r="8" fill="#0891B2"/>

  <!-- Left arm -->
  <path d="M70 100 L45 100 L40 130 L50 130 L55 110 L70 110 Z"
        fill="#0891B2"
        stroke="#06B6D4"
        stroke-width="1.5"/>

  <!-- Right arm -->
  <path d="M130 100 L155 100 L160 130 L150 130 L145 110 L130 110 Z"
        fill="#0891B2"
        stroke="#06B6D4"
        stroke-width="1.5"/>

  <!-- Left leg -->
  <path d="M75 150 L60 150 L55 185 L75 185 L80 160 L90 160 L90 150 Z"
        fill="#0891B2"
        stroke="#06B6D4"
        stroke-width="1.5"/>

  <!-- Right leg -->
  <path d="M125 150 L140 150 L145 185 L125 185 L120 160 L110 160 L110 150 Z"
        fill="#0891B2"
        stroke="#06B6D4"
        stroke-width="1.5"/>

  <!-- Circuit detail lines -->
  <line x1="100" y1="80" x2="100" y2="95" stroke="#06B6D4" stroke-width="2"/>
  <line x1="85" y1="140" x2="85" y2="150" stroke="#06B6D4" stroke-width="1.5"/>
  <line x1="115" y1="140" x2="115" y2="150" stroke="#06B6D4" stroke-width="1.5"/>

  <!-- Joint circles -->
  <circle cx="70" cy="100" r="4" fill="#06B6D4"/>
  <circle cx="130" cy="100" r="4" fill="#06B6D4"/>
  <circle cx="75" cy="150" r="3" fill="#06B6D4"/>
  <circle cx="125" cy="150" r="3" fill="#06B6D4"/>
</svg>
